<?xml version="1.0" encoding="UTF-8"?>
<svg version="1.1" xmlns="http://www.w3.org/2000/svg" width="1024" height="1024">
<path d="M0 0 C337.92 0 675.84 0 1024 0 C1024 337.92 1024 675.84 1024 1024 C686.08 1024 348.16 1024 0 1024 C0 686.08 0 348.16 0 0 Z " fill="#25272A" transform="translate(0,0)"/>
<path d="M0 0 C130.68 0 261.36 0 396 0 C396 59.73 396 119.46 396 181 C388.08 184.96 380.16 188.92 372 193 C365.18934562 196.54114074 365.18934562 196.54114074 358.40234375 200.125 C354.81518709 202.03446044 351.2265303 203.94103653 347.6360321 205.84420776 C335.05664086 212.51219421 322.48562191 219.19534234 309.94213867 225.93066406 C293.39487093 234.81581486 276.82749615 243.66190674 259.99316406 251.99389648 C254.45176372 254.74686304 248.97498697 257.61760202 243.5 260.5 C235.9957543 264.44903415 228.46317143 268.32442603 220.859375 272.078125 C218.12283423 273.43092676 215.40925269 274.8217423 212.703125 276.234375 C211.98938721 276.60280518 211.27564941 276.97123535 210.5402832 277.35083008 C209.18563349 278.05088184 207.83485124 278.75849485 206.48901367 279.4753418 C202.25902739 281.64534522 198.77586234 283.07112986 194 283 C190.3904552 281.58813858 187.14002486 279.66234622 183.8125 277.6875 C181.84547688 276.56597624 179.87668826 275.44754394 177.90625 274.33203125 C176.91753906 273.76822754 175.92882812 273.20442383 174.91015625 272.62353516 C170.61494635 270.22729809 166.2273636 268.04055167 161.8125 265.875 C155.60149023 262.80816288 149.43167067 259.68385547 143.3125 256.4375 C134.57669177 251.80631081 125.79230943 247.27263039 117 242.75 C115.56377675 242.0107914 114.12757888 241.2715335 112.69140625 240.53222656 C109.83255993 239.06063114 106.97368014 237.58910078 104.11474609 236.11767578 C103.42556091 235.76296204 102.73637573 235.40824829 102.02630615 235.04278564 C100.71064734 234.36571613 99.39493587 233.68874891 98.0791626 233.01190186 C85.27787213 226.42646662 72.52324788 219.78484412 59.9206543 212.82568359 C49.64072884 207.18881304 39.18469147 201.88937064 28.73242188 196.58105469 C28.01210785 196.21366684 27.29179382 195.84627899 26.5496521 195.46775818 C25.23031467 194.79488748 23.90972197 194.12446635 22.58731079 193.45765686 C14.91541003 189.53945449 7.52742427 185.23417615 0 181 C0 121.27 0 61.54 0 0 Z " fill="#D4AA75" transform="translate(314,466)"/>
<path d="M0 0 C4.15009549 1.6600382 7.36429621 3.35372991 11.125 5.6875 C21.86102796 12.25883444 32.94138252 18.240863 43.96484375 24.31176758 C47.32507391 26.18081452 50.66155338 28.09231622 54 30 C54 117.78 54 205.56 54 296 C29.06199305 309.60254925 29.06199305 309.60254925 18.125 315.4375 C15.73655603 316.71405339 13.3486474 317.99160542 10.9609375 319.26953125 C10.37356812 319.58388123 9.78619873 319.8982312 9.18103027 320.22210693 C3.36112127 323.33877399 -2.44615509 326.47854425 -8.25 329.625 C-9.23162109 330.15706055 -10.21324219 330.68912109 -11.22460938 331.23730469 C-16.02952487 333.84301068 -20.83224891 336.45269197 -25.6328125 339.06640625 C-37.34021999 345.43357518 -49.09208056 351.71156921 -60.875 357.9375 C-87.85512626 372.16358671 -87.85512626 372.16358671 -114.52539062 386.95800781 C-118.82481765 389.3892044 -123.19235421 391.63491433 -127.625 393.8125 C-133.83916885 396.86623738 -139.93268351 400.10180843 -146 403.4375 C-155.16680921 408.47599443 -164.38285644 413.41416942 -173.625 418.3125 C-176.36727374 419.76676449 -179.10942106 421.22126731 -181.8515625 422.67578125 C-182.53067688 423.03596848 -183.20979126 423.3961557 -183.90948486 423.76725769 C-190.35061241 427.18429092 -196.78716327 430.60980035 -203.21716309 434.04772949 C-204.97608794 434.9872278 -206.73656924 435.92381022 -208.49707031 436.86035156 C-213.41600029 439.48807689 -218.30036904 442.13930541 -223.0859375 445.00390625 C-223.82585937 445.44283203 -224.56578125 445.88175781 -225.328125 446.33398438 C-226.63367995 447.1175665 -227.9293171 447.91808852 -229.2109375 448.74023438 C-230.8984375 449.75390625 -230.8984375 449.75390625 -234 451 C-238.60371614 449.82977711 -242.67032244 447.74293669 -246.828125 445.5 C-247.48142792 445.15247177 -248.13473083 444.80494354 -248.80783081 444.44688416 C-250.9575115 443.30216191 -253.10370454 442.15105491 -255.25 441 C-256.77041076 440.1890472 -258.29108609 439.37859028 -259.81201172 438.56860352 C-262.97237339 436.88503999 -266.13158534 435.19934702 -269.29003906 433.51220703 C-275.85723809 430.00649902 -282.43924573 426.52885693 -289.02075195 423.05010986 C-294.64676848 420.07538381 -300.26973469 417.09488989 -305.89343262 414.11578369 C-308.01117314 412.99408193 -310.12910586 411.87274372 -312.24707031 410.75146484 C-316.41559569 408.54430545 -320.58321823 406.33544928 -324.75 404.125 C-325.42175262 403.76866486 -326.09350525 403.41232971 -326.78561401 403.04519653 C-334.95090857 398.71144178 -343.08760907 394.33009118 -351.1875 389.875 C-360.17028879 384.93497597 -369.26225049 380.22002434 -378.37905884 375.53421021 C-387.33431169 370.92923194 -396.21387026 366.20519259 -405.03515625 361.34765625 C-411.47770663 357.80758425 -417.97311781 354.38181276 -424.5 351 C-432.97262433 346.60940636 -441.36694715 342.09455264 -449.73046875 337.5 C-456.27690938 333.91393266 -462.87294496 330.43453262 -469.5 327 C-480.75870899 321.16141286 -491.87698595 315.09566307 -503 309 C-510.92 304.71 -518.84 300.42 -527 296 C-527 208.55 -527 121.1 -527 31 C-519.74 27.04 -512.48 23.08 -505 19 C-495.64962206 13.83907711 -486.33269629 8.6922086 -477.1875 3.1796875 C-475 2 -475 2 -473 2 C-472.67 90.44 -472.34 178.88 -472 270 C-463.75 274.29 -455.5 278.58 -447 283 C-436.625 288.6875 -436.625 288.6875 -433.68408203 290.30737305 C-425.04337859 295.04158821 -416.27151109 299.5148453 -407.5 304 C-394.97296732 310.4059257 -382.55092011 316.96271635 -370.23535156 323.76855469 C-362.15741176 328.21865608 -354.01215765 332.52589547 -345.75 336.625 C-329.69178259 344.59322062 -313.75112091 352.81061137 -298.12866211 361.60424805 C-293.09694338 364.42448962 -287.999608 367.05706403 -282.82519531 369.60424805 C-276.18122077 372.88335531 -269.59636783 376.27559045 -263.01504517 379.6781311 C-261.72968427 380.34259886 -260.44402694 381.00649355 -259.15805054 381.66976929 C-257.324633 382.61557303 -255.49233955 383.56352681 -253.66015625 384.51171875 C-252.51305176 385.10388184 -251.36594727 385.69604492 -250.18408203 386.30615234 C-246.69414917 388.16270457 -243.30713519 390.15436858 -239.96264648 392.26098633 C-237.26921444 393.27516954 -235.7300671 392.82645426 -233 392 C-230.78814749 391.010123 -230.78814749 391.010123 -228.61328125 389.734375 C-227.34919434 389.02740479 -227.34919434 389.02740479 -226.05957031 388.30615234 C-225.15303711 387.79262207 -224.24650391 387.2790918 -223.3125 386.75 C-214.89668255 382.06305014 -206.38930515 377.63536633 -197.75 373.375 C-189.4350001 369.26715002 -181.25496702 365.01212672 -173.18237305 360.44775391 C-168.07669692 357.5694882 -162.90258309 354.89473466 -157.64526367 352.3059082 C-148.14359796 347.6151256 -138.76713982 342.67863551 -129.36734009 337.78799438 C-125.25986158 335.65187067 -121.14685442 333.52669106 -117.03125 331.40625 C-106.75224856 326.10555735 -96.50252422 320.77299461 -86.375 315.1875 C-77.10767354 310.07785296 -67.7265134 305.20687129 -58.3125 300.375 C-57.59401886 300.00616699 -56.87553772 299.63733398 -56.13528442 299.25732422 C-53.31872854 297.81166752 -50.50204558 296.36625884 -47.68516541 294.92123413 C-31.98434898 286.86329101 -16.49733285 278.45309065 -1 270 C-0.505 136.35 -0.505 136.35 0 0 Z " fill="#D8AD78" transform="translate(748,443)"/>
<path d="M0 0 C0.33 0 0.66 0 1 0 C1 54.45 1 108.9 1 165 C-129.68 165 -260.36 165 -395 165 C-395 110.88 -395 56.76 -395 1 C-386.01449275 7.73913043 -386.01449275 7.73913043 -383.10546875 10.55078125 C-382.46601318 11.16187744 -381.82655762 11.77297363 -381.16772461 12.40258789 C-380.51425049 13.03285889 -379.86077637 13.66312988 -379.1875 14.3125 C-373.9125481 19.33414704 -368.55221209 24.08296333 -362.8515625 28.62109375 C-357.85181084 32.79211945 -353.17407324 37.31275011 -348.4375 41.77734375 C-345.36227934 44.67317654 -342.22120474 47.47521596 -339.01953125 50.23046875 C-336.3051372 52.60884497 -333.65430875 55.05512354 -331 57.5 C-327.0414766 61.1442477 -323.04822953 64.73913966 -318.984375 68.265625 C-314.0746528 72.55679952 -309.26125182 76.95802108 -304.421875 81.328125 C-300.6569915 84.72344938 -296.88806449 88.11058342 -293.0625 91.4375 C-289.78903731 94.28601013 -286.57856637 97.19812492 -283.375 100.125 C-279.65637597 103.51779188 -275.90968102 106.82998836 -272 110 C-268.96273042 108.63389732 -266.79084974 107.06926193 -264.390625 104.76953125 C-263.71773437 104.13080078 -263.04484375 103.49207031 -262.3515625 102.83398438 C-261.65804687 102.16689453 -260.96453125 101.49980469 -260.25 100.8125 C-255.5497242 96.32221751 -250.8096626 91.91709958 -245.89746094 87.65893555 C-243.04387151 85.16406419 -240.272674 82.58400724 -237.5 80 C-231.70076159 74.62570222 -225.80596386 69.39153511 -219.7890625 64.26171875 C-218.58834809 63.237206 -217.38783271 62.21245994 -216.1875 61.1875 C-215.58929443 60.67670898 -214.99108887 60.16591797 -214.37475586 59.63964844 C-208.81182105 54.87206235 -203.38499295 49.96738125 -198 45 C-193.84796396 46.70785719 -190.71225657 49.64409488 -187.375 52.5625 C-186.75544434 53.0989917 -186.13588867 53.6354834 -185.49755859 54.18823242 C-181.02763674 58.07037169 -176.61151104 62.01040448 -172.2265625 65.98828125 C-170.16895609 67.84734669 -168.09153237 69.67928358 -166 71.5 C-162.97245233 74.13689636 -159.98062721 76.81016569 -157 79.5 C-150.3745183 85.47297214 -143.6444 91.31621851 -136.875 97.125 C-136.28879883 97.62813721 -135.70259766 98.13127441 -135.09863281 98.6496582 C-131.4241153 101.79724618 -127.72339578 104.91037372 -124 108 C-120.07526514 106.34099372 -117.06523223 103.69223127 -113.875 100.9375 C-113.30023926 100.44652832 -112.72547852 99.95555664 -112.13330078 99.44970703 C-107.83652959 95.76386248 -103.63644421 91.97760222 -99.44921875 88.16796875 C-96.91919718 85.92847597 -94.32093036 83.80412441 -91.6875 81.6875 C-86.23623899 77.27861892 -81.12286502 72.5647602 -76 67.78515625 C-73.03721767 65.02278656 -70.00719301 62.34723412 -66.9453125 59.6953125 C-61.99602833 55.38208091 -57.13522166 50.96502283 -52.3046875 46.51953125 C-47.90516538 42.47723529 -43.48336542 38.5394031 -38.8125 34.8125 C-33.24604548 30.32907525 -28.10476939 25.4502069 -22.92553711 20.52880859 C-18.20749933 16.06846692 -13.36404341 11.91673934 -8.28125 7.875 C-5.30948541 5.43245376 -2.68212096 2.75270309 0 0 Z " fill="#D6AB76" transform="translate(709,268)"/>
<path d="M0 0 C7.14999169 6.25365078 12.895793 12.59105515 17.3828125 21.046875 C17.85074219 21.87832031 18.31867188 22.70976563 18.80078125 23.56640625 C24.3326311 33.86765157 25.90211659 43.75191511 25.7578125 55.359375 C25.74041016 57.15048706 25.74041016 57.15048706 25.72265625 58.9777832 C25.43673874 74.37843539 21.65319713 85.61750212 14.3828125 99.046875 C13.70939915 100.3768136 13.0385841 101.70814955 12.3828125 103.046875 C13.94370276 104.46531509 15.5066014 105.88154525 17.0703125 107.296875 C17.94042969 108.08578125 18.81054688 108.8746875 19.70703125 109.6875 C22.20702113 111.89187064 24.76226978 113.98821441 27.3828125 116.046875 C25.33789496 120.61161081 22.20347804 123.33308903 18.5703125 126.671875 C17.95349609 127.25710938 17.33667969 127.84234375 16.70117188 128.4453125 C13.44707162 131.46080179 10.73409333 133.77049929 6.3828125 135.046875 C5.49078125 134.26441406 4.59875 133.48195313 3.6796875 132.67578125 C2.49771279 131.65327932 1.31540353 130.63116404 0.1328125 129.609375 C-0.45371094 129.09310547 -1.04023437 128.57683594 -1.64453125 128.04492188 C-2.21816406 127.55185547 -2.79179688 127.05878906 -3.3828125 126.55078125 C-4.16833496 125.86737671 -4.16833496 125.86737671 -4.96972656 125.17016602 C-6.87207493 123.87308468 -8.34142717 123.36849306 -10.6171875 123.046875 C-13.24520596 124.10989353 -13.24520596 124.10989353 -15.9921875 125.734375 C-34.35960672 135.38961982 -58.72960745 137.39587489 -78.68359375 131.5546875 C-95.08784868 125.62965562 -110.14514725 114.84326086 -119.6171875 100.046875 C-120.11476563 99.32628906 -120.61234375 98.60570312 -121.125 97.86328125 C-131.57901428 81.86706342 -133.91809145 61.76093592 -131.00390625 43.125 C-125.92547769 23.70616304 -114.29667175 5.43205497 -96.84863281 -5.01171875 C-92.51927425 -7.49827931 -88.10319339 -9.76322585 -83.6171875 -11.953125 C-82.87597656 -12.31535156 -82.13476562 -12.67757813 -81.37109375 -13.05078125 C-56.11918352 -23.85751272 -20.49499538 -17.16415177 0 0 Z " fill="#222528" transform="translate(645.6171875,509.953125)"/>
<path d="M0 0 C1.07765625 0.35191406 2.1553125 0.70382813 3.265625 1.06640625 C10.7324414 3.69715668 16.81358108 7.08286358 23 12 C23.68578125 12.52207031 24.3715625 13.04414063 25.078125 13.58203125 C37.16027674 23.35715795 48.02896335 40.10095395 49.828125 55.80078125 C50.99488228 77.51837693 47.60888196 97.00207155 33 114 C32.33484375 114.78761719 31.6696875 115.57523437 30.984375 116.38671875 C20.9121133 127.37294494 8.04618578 132.23820542 -6 136 C-6.62986816 136.17813232 -7.25973633 136.35626465 -7.90869141 136.53979492 C-23.48968347 139.96848626 -40.54313327 136.95223952 -54.3125 129.25 C-59.88258425 125.59902041 -64.99355825 121.38157759 -70 117 C-70.72316406 116.37351562 -71.44632812 115.74703125 -72.19140625 115.1015625 C-83.70142186 104.42495311 -91.53193265 88.26611778 -92.1328125 72.51953125 C-92.1247167 68.67807592 -92.08255111 64.8405921 -92 61 C-91.98324219 59.99839844 -91.96648437 58.99679688 -91.94921875 57.96484375 C-91.5875514 50.78316354 -89.30981109 45.32362282 -86 39 C-85.55527344 38.08089844 -85.11054688 37.16179687 -84.65234375 36.21484375 C-75.94224162 18.96447436 -59.87182003 5.33787899 -41.8359375 -1.23828125 C-28.67553211 -4.77310088 -12.81997872 -4.40908108 0 0 Z " fill="#D9AE79" transform="translate(533,130)"/>
<path d="M0 0 C13.2 0 26.4 0 40 0 C40 63.36 40 126.72 40 192 C34.37641723 186.37641723 34.37641723 186.37641723 32.125 183.390625 C31.62186279 182.72772461 31.11872559 182.06482422 30.6003418 181.38183594 C30.072229 180.67833008 29.54411621 179.97482422 29 179.25 C27.83994756 177.71867135 26.67978842 176.18742353 25.51953125 174.65625 C24.93252441 173.87894531 24.34551758 173.10164062 23.74072266 172.30078125 C21.07123398 168.77241361 18.37856491 165.26191907 15.6875 161.75 C13.45747157 158.83399175 11.22874542 155.91698894 9 153 C8.37722168 152.18515137 7.75444336 151.37030273 7.11279297 150.53076172 C-0.13095141 141.04984598 -7.35166093 131.55311461 -14.5 122 C-21.58671024 112.52931559 -28.74798936 103.11683732 -35.92675781 93.71582031 C-39.55834105 88.95866864 -43.18526241 84.19796541 -46.8125 79.4375 C-47.48853271 78.55070557 -48.16456543 77.66391113 -48.86108398 76.75024414 C-49.49087158 75.92387451 -50.12065918 75.09750488 -50.76953125 74.24609375 C-51.32229736 73.52091553 -51.87506348 72.7957373 -52.44458008 72.04858398 C-52.95786865 71.37255127 -53.47115723 70.69651855 -54 70 C-54.56162842 69.29367432 -55.12325684 68.58734863 -55.7019043 67.85961914 C-57 66 -57 66 -57 64 C-57.66 64 -58.32 64 -59 64 C-59 90.4 -59 116.8 -59 144 C-71.21 144 -83.42 144 -96 144 C-96 96.81 -96 49.62 -96 1 C-58 1 -58 1 -49.375 9.5 C-46.515625 14.7890625 -46.515625 14.7890625 -45.25976562 17.46972656 C-43.34566136 21.31425691 -40.78506163 24.5240697 -38.125 27.875 C-37.14526363 29.17208791 -36.16877209 30.47163227 -35.1953125 31.7734375 C-31.4808127 36.69544454 -27.73960551 41.59705966 -24 46.5 C-21.97865181 49.15350169 -19.95753719 51.80718108 -17.93652344 54.4609375 C-16.67613353 56.11349109 -15.4138604 57.76461061 -14.14941406 59.4140625 C-12.4695618 61.60557788 -10.79658461 63.80217579 -9.125 66 C-8.63128906 66.64001953 -8.13757813 67.28003906 -7.62890625 67.93945312 C-5.18620226 71.16507507 -3.27042612 74.14491384 -2 78 C-1.34 78 -0.68 78 0 78 C0 52.26 0 26.52 0 0 Z " fill="#222528" transform="translate(454,497)"/>
<path d="M0 0 C4.1596994 1.66387976 8.13209252 3.48942216 12.125 5.5 C12.82890869 5.85328369 13.53281738 6.20656738 14.25805664 6.57055664 C20.12384741 9.52890504 25.93702988 12.58210617 31.74145508 15.65869141 C37.06696426 18.47447787 42.41293688 21.24770922 47.7734375 23.99609375 C48.80910355 24.52719757 48.80910355 24.52719757 49.86569214 25.06903076 C51.29190887 25.80035778 52.71812756 26.53168098 54.14434814 27.26300049 C65.42705108 33.04966166 76.64340507 38.92228286 87.74951172 45.04345703 C93.19643259 48.0384876 98.68396716 50.9028879 104.26074219 53.6472168 C111.65855665 57.29743002 118.98351263 61.08914538 126.3125 64.875 C126.99565277 65.22782043 127.67880554 65.58064087 128.38265991 65.94415283 C136.90677654 70.3483575 145.41810781 74.77527582 153.89916992 79.26196289 C158.53349054 81.71089387 163.18043396 84.13457022 167.8359375 86.54296875 C168.43660034 86.85379395 169.03726318 87.16461914 169.65612793 87.48486328 C172.62877879 89.02266705 175.60236415 90.55860924 178.57714844 92.09228516 C179.66801758 92.65608887 180.75888672 93.21989258 181.8828125 93.80078125 C182.92985352 94.33783691 183.97689453 94.87489258 185.05566406 95.42822266 C187.75521973 96.86932874 190.32776332 98.43538626 192.9296875 100.04296875 C195.8528558 101.6615826 196.58048566 102.05703201 199.98828125 101.59375 C201.47908203 100.80484375 201.47908203 100.80484375 203 100 C204.43071911 99.32234532 205.86173691 98.6453211 207.29296875 97.96875 C208.92681676 97.1504843 210.55820522 96.32729474 212.1875 95.5 C213.06680176 95.05712646 213.94610352 94.61425293 214.85205078 94.15795898 C221.51294043 90.78939066 228.11878402 87.3215719 234.71166992 83.82226562 C240.76256679 80.62166784 246.86919707 77.54434166 253 74.5 C260.35490033 70.84502156 267.6561286 67.11050246 274.90893555 63.25732422 C280.31618199 60.39307608 285.74866641 57.58131456 291.1953125 54.79296875 C292.29817848 54.22829895 292.29817848 54.22829895 293.42332458 53.65222168 C294.94614311 52.87261272 296.46896523 52.09301078 297.99179077 51.31341553 C309.37711112 45.48308947 320.71424412 39.59901442 331.91064453 33.41113281 C340.66457739 28.59089769 349.54464979 24.02026578 358.43017578 19.44921875 C359.65007721 18.82163812 360.86996669 18.19403425 362.08984375 17.56640625 C362.97999176 17.10852219 362.97999176 17.10852219 363.88812256 16.64138794 C369.9298138 13.52918251 375.93942913 10.35636329 381.9284668 7.14404297 C386.88770819 4.50688788 391.83277578 2.2965441 397 0 C397 8.58 397 17.16 397 26 C395.27136719 26.89460937 393.54273438 27.78921875 391.76171875 28.7109375 C380.58365061 34.49935023 369.40821543 40.29125992 358.27929688 46.17382812 C353.73269914 48.57309837 349.17402302 50.94746141 344.60546875 53.3046875 C334.22001634 58.66350976 323.85297623 64.03283244 313.625 69.6875 C302.88477835 75.61953401 291.96052985 81.18009485 281.03442383 86.75891113 C271.18334892 91.79125921 261.39561285 96.89720217 251.7253418 102.27099609 C240.30117106 108.56561243 228.63384807 114.40883264 217.01025391 120.32397461 C216.17496658 120.74975296 215.33967926 121.17553131 214.4790802 121.61421204 C212.8950705 122.42135118 211.31021836 123.22683978 209.72441101 124.03044128 C209.01396133 124.39245132 208.30351166 124.75446136 207.5715332 125.12744141 C206.95172073 125.44210358 206.33190826 125.75676575 205.6933136 126.08096313 C204.07408989 126.95978811 202.53292001 127.97805333 201 129 C195.5973111 128.75332219 191.37641121 126.41474894 186.69140625 123.94921875 C185.89668411 123.53929687 185.10196198 123.129375 184.28315735 122.70703125 C181.70546693 121.37500787 179.13400455 120.03142059 176.5625 118.6875 C174.77852445 117.76271961 172.99417999 116.83865055 171.20947266 115.9152832 C166.88484422 113.67537823 162.5650317 111.4263964 158.24749756 109.17285156 C155.27716078 107.62278798 152.30456313 106.07709952 149.33203125 104.53125 C145.74075008 102.6614403 142.15270227 100.78560072 138.56640625 98.90625 C134.43635247 96.74478264 130.29654538 94.60296518 126.15234375 92.46875 C108.53039652 83.39355275 91.03486011 74.10458667 73.58691406 64.69921875 C67.10318374 61.20682537 60.59789867 57.77293922 54 54.5 C46.44327761 50.75087554 38.93153138 46.91481685 31.43017578 43.05639648 C30.08441363 42.36465108 28.73808024 41.6740156 27.39111328 40.98461914 C18.10879186 36.2318753 9.02344733 31.22963054 0 26 C0 17.42 0 8.84 0 0 Z " fill="#D6AC76" transform="translate(313,677)"/>
<path d="M0 0 C1.37478516 -0.02416992 1.37478516 -0.02416992 2.77734375 -0.04882812 C13.07532236 -0.05617333 20.21272574 3.31650217 27.75 10.3125 C35.51259051 18.67567778 38.27474912 26.11188688 38.0625 37.4375 C38.06572266 38.30503906 38.06894531 39.17257812 38.07226562 40.06640625 C38.03205819 44.86936743 37.60459582 48.80531494 35.75 53.3125 C30.20889287 49.90258792 25.54031507 45.69829957 20.75 41.3125 C17.81768431 42.65298717 15.58242887 44.16068486 13.1875 46.3125 C12.50558594 46.92222656 11.82367187 47.53195312 11.12109375 48.16015625 C10.33863281 48.87042969 9.55617188 49.58070313 8.75 50.3125 C7.28240234 51.64087891 7.28240234 51.64087891 5.78515625 52.99609375 C3.1014222 55.42904771 0.42433706 57.8692178 -2.25 60.3125 C-0.70252468 64.32311652 1.86690054 66.30042367 5.1875 68.9375 C6.15558594 69.71351563 7.12367188 70.48953125 8.12109375 71.2890625 C9.94874639 72.69578474 11.83101319 74.03317546 13.75 75.3125 C13.75 75.9725 13.75 76.6325 13.75 77.3125 C5.9328436 79.9182188 -6.57004601 79.64919471 -14.23828125 76.41015625 C-22.2293518 72.04997989 -28.00777564 67.47816885 -32.25 59.3125 C-32.5912793 58.67658936 -32.93255859 58.04067871 -33.28417969 57.38549805 C-36.22770139 51.46509473 -36.88839562 46.43984379 -36.75 39.875 C-36.73646484 38.94776123 -36.72292969 38.02052246 -36.70898438 37.06518555 C-36.35619471 25.43645885 -32.42536717 17.6413297 -24.25 9.3125 C-16.07492743 2.6717879 -10.43566679 -0.0360846 0 0 Z " fill="#CFA673" transform="translate(592.25,529.6875)"/>
<path d="M0 0 C130.68 0 261.36 0 396 0 C396 59.73 396 119.46 396 181 C372 193 372 193 368 194 C370.27768142 191.47010747 372.51021126 190.07403752 375.5625 188.58984375 C376.44164062 188.15736328 377.32078125 187.72488281 378.2265625 187.27929688 C379.14179687 186.83650391 380.05703125 186.39371094 381 185.9375 C382.81335525 185.05253156 384.62589129 184.16588204 386.4375 183.27734375 C387.24058594 182.88796631 388.04367187 182.49858887 388.87109375 182.09741211 C391.20199333 180.94609105 391.20199333 180.94609105 394 179 C394.33 120.59 394.66 62.18 395 2 C265.31 2 135.62 2 2 2 C2 61.07 2 120.14 2 181 C1.34 181 0.68 181 0 181 C0 121.27 0 61.54 0 0 Z " fill="#F4C281" transform="translate(314,466)"/>
<path d="M0 0 C13.2 0 26.4 0 40 0 C40 63.36 40 126.72 40 192 C34.37414966 186.37414966 34.37414966 186.37414966 32.08984375 183.35546875 C31.58026123 182.68572021 31.07067871 182.01597168 30.5456543 181.32592773 C30.01496338 180.62024658 29.48427246 179.91456543 28.9375 179.1875 C28.10182495 178.08547241 28.10182495 178.08547241 27.24926758 176.96118164 C25.49476399 174.64432766 23.74651326 172.32288198 22 170 C21.41541016 169.22333984 20.83082031 168.44667969 20.22851562 167.64648438 C16.81090045 163.1036969 13.40204896 158.55445473 10 154 C10.495 153.01 10.495 153.01 11 152 C16.8357929 158.77945303 22.34462503 165.64864991 27.42333984 173.01416016 C30.40575151 177.3055542 33.54720056 180.97173398 37 185 C37.33 124.61 37.66 64.22 38 2 C26.12 2 14.24 2 2 2 C2.01160156 5.82207031 2.02320313 9.64414062 2.03515625 13.58203125 C2.04299011 17.34871335 2.04904215 21.11539449 2.05493164 24.88208008 C2.05991172 27.46834734 2.0666982 30.05461186 2.07543945 32.64086914 C2.12422322 47.46252471 2.02324119 62.20972349 1 77 C0.67 77 0.34 77 0 77 C0 51.59 0 26.18 0 0 Z " fill="#1A1B23" transform="translate(454,497)"/>
<path d="M0 0 C8.98550725 6.73913043 8.98550725 6.73913043 11.89453125 9.55078125 C12.53398682 10.16187744 13.17344238 10.77297363 13.83227539 11.40258789 C14.48574951 12.03285889 15.13922363 12.66312988 15.8125 13.3125 C21.0874519 18.33414704 26.44778791 23.08296333 32.1484375 27.62109375 C37.14818916 31.79211945 41.82592676 36.31275011 46.5625 40.77734375 C49.63772066 43.67317654 52.77879526 46.47521596 55.98046875 49.23046875 C58.6948628 51.60884497 61.34569125 54.05512354 64 56.5 C67.9585234 60.1442477 71.95177047 63.73913966 76.015625 67.265625 C80.9253472 71.55679952 85.73874818 75.95802108 90.578125 80.328125 C94.3430085 83.72344938 98.11193551 87.11058342 101.9375 90.4375 C105.21096269 93.28601013 108.42143363 96.19812492 111.625 99.125 C115.34362403 102.51779188 119.09031898 105.82998836 123 109 C123.5775 108.71125 124.155 108.4225 124.75 108.125 C126.83333333 107.08333333 128.91666667 106.04166667 131 105 C131 105.66 131 106.32 131 107 C129.04072937 108.7143618 127.04119788 110.38405168 125 112 C120.98871374 110.32131086 117.93023039 107.57207393 114.6875 104.75 C114.08083496 104.22639893 113.47416992 103.70279785 112.84912109 103.16333008 C106.87371564 97.96562969 101.10590499 92.5522824 95.33984375 87.125 C92.25035843 84.22169028 89.09928838 81.40329173 85.88671875 78.63671875 C83.56341213 76.62126228 81.28251535 74.56151538 79 72.5 C76.01937279 69.81016569 73.02754767 67.13689636 70 64.5 C66.09931831 61.10263208 62.26088925 57.6386212 58.421875 54.171875 C56.38198798 52.34255696 54.32396218 50.54034342 52.25 48.75 C49.10162356 46.01504673 46.05172939 43.18767253 43.01074219 40.33496094 C37.45306907 35.12259585 31.8165054 30.15320432 25.86328125 25.390625 C21.74373169 21.95111022 17.84485702 18.28884749 13.9453125 14.60351562 C13.38972656 14.07951172 12.83414062 13.55550781 12.26171875 13.015625 C11.77662842 12.55446289 11.29153809 12.09330078 10.79174805 11.61816406 C8.26275629 9.33418023 5.61786339 7.18155283 3 5 C2.67 56.81 2.34 108.62 2 162 C1.34 162 0.68 162 0 162 C0 108.54 0 55.08 0 0 Z " fill="#F4C584" transform="translate(314,269)"/>
<path d="M0 0 C9.9 0 19.8 0 30 0 C30 0.33 30 0.66 30 1 C20.43 1 10.86 1 1 1 C1 47.2 1 93.4 1 141 C12.22 141 23.44 141 35 141 C35 115.26 35 89.52 35 63 C35.99 63.495 35.99 63.495 37 64 C37 90.07 37 116.14 37 143 C24.79 143 12.58 143 0 143 C0 95.81 0 48.62 0 0 Z " fill="#090C19" transform="translate(358,498)"/>
<path d="M0 0 C5.68006219 4.06336404 10.78986064 8.46820119 15.8125 13.3125 C21.0874519 18.33414704 26.44778791 23.08296333 32.1484375 27.62109375 C37.14818916 31.79211945 41.82592676 36.31275011 46.5625 40.77734375 C49.63772066 43.67317654 52.77879526 46.47521596 55.98046875 49.23046875 C58.6948628 51.60884497 61.34569125 54.05512354 64 56.5 C67.9585234 60.1442477 71.95177047 63.73913966 76.015625 67.265625 C80.9253472 71.55679952 85.73874818 75.95802108 90.578125 80.328125 C94.3430085 83.72344938 98.11193551 87.11058342 101.9375 90.4375 C105.21096269 93.28601013 108.42143363 96.19812492 111.625 99.125 C115.34362403 102.51779188 119.09031898 105.82998836 123 109 C123.5775 108.71125 124.155 108.4225 124.75 108.125 C126.83333333 107.08333333 128.91666667 106.04166667 131 105 C131 105.66 131 106.32 131 107 C129.04072937 108.7143618 127.04119788 110.38405168 125 112 C120.98871374 110.32131086 117.93023039 107.57207393 114.6875 104.75 C114.08083496 104.22639893 113.47416992 103.70279785 112.84912109 103.16333008 C106.87371564 97.96562969 101.10590499 92.5522824 95.33984375 87.125 C92.25035843 84.22169028 89.09928838 81.40329173 85.88671875 78.63671875 C83.56341213 76.62126228 81.28251535 74.56151538 79 72.5 C76.01937279 69.81016569 73.02754767 67.13689636 70 64.5 C66.09931831 61.10263208 62.26088925 57.6386212 58.421875 54.171875 C56.38198798 52.34255696 54.32396218 50.54034342 52.25 48.75 C49.10162356 46.01504673 46.05172939 43.18767253 43.01074219 40.33496094 C37.44960896 35.11935072 31.81027493 30.14626698 25.8515625 25.3828125 C21.77490319 21.97628896 17.93961085 18.3283141 14.08154297 14.67822266 C10.08654705 10.92575225 5.96943726 7.5203687 1.4765625 4.3671875 C0.98929687 3.91601562 0.50203125 3.46484375 0 3 C0 2.01 0 1.02 0 0 Z " fill="#EBCA88" transform="translate(314,269)"/>
<path d="M0 0 C0.0287984 20.93408986 -0.03097129 41.86516595 -0.20192909 62.79871106 C-0.23090426 66.38198957 -0.25836203 69.96527978 -0.28601074 73.54856873 C-0.33811164 80.27297024 -0.39149111 86.99736091 -0.4453826 93.72174829 C-0.50687756 101.40313327 -0.566867 109.08452981 -0.62675762 116.76592743 C-0.74954884 132.51063131 -0.87419425 148.2553199 -1 164 C-4.3 164 -7.6 164 -11 164 C-11 163.67 -11 163.34 -11 163 C-8.03 163 -5.06 163 -2 163 C-2.33 110.86 -2.66 58.72 -3 5 C-4.32 6.32 -5.64 7.64 -7 9 C-7.66 8.67 -8.32 8.34 -9 8 C-7.6905332 6.66368764 -6.37734515 5.33102075 -5.0625 4 C-3.96615234 2.88625 -3.96615234 2.88625 -2.84765625 1.75 C-1 0 -1 0 0 0 Z " fill="#F8C381" transform="translate(710,268)"/>
<path d="M0 0 C4.15203604 1.70785719 7.28774343 4.64409488 10.625 7.5625 C11.5543335 8.36723755 11.5543335 8.36723755 12.50244141 9.18823242 C16.97236326 13.07037169 21.38848896 17.01040448 25.7734375 20.98828125 C27.83104391 22.84734669 29.90846763 24.67928358 32 26.5 C35.02754767 29.13689636 38.01937279 31.81016569 41 34.5 C47.6254817 40.47297214 54.3556 46.31621851 61.125 52.125 C61.71120117 52.62813721 62.29740234 53.13127441 62.90136719 53.6496582 C64.04278584 54.62739627 65.18709785 55.60176813 66.33447266 56.57250977 C67.45375915 57.53182788 68.55762605 58.50940653 69.64599609 59.50366211 C71.03346332 60.74445669 72.51192107 61.88185081 74 63 C77.34084905 62.47158931 77.34084905 62.47158931 80 61 C78.68 62.65 77.36 64.3 76 66 C72.05459313 64.34178552 69.06518851 61.65342999 65.875 58.875 C60.93554916 54.61801486 55.91214947 50.52105548 50.73046875 46.55859375 C50.15941406 46.04425781 49.58835937 45.52992188 49 45 C49 44.34 49 43.68 49 43 C48.46503906 42.78472656 47.93007813 42.56945312 47.37890625 42.34765625 C44.13062334 40.50749598 41.61581982 38.00156177 38.9375 35.4375 C34.87960371 31.61699435 30.78799993 27.92801739 26.4375 24.4375 C21.35564761 20.35864479 16.5856361 16.02124842 11.82421875 11.578125 C6.77198166 6.27286029 6.77198166 6.27286029 0.375 4 C-2.1023609 5.04309933 -3.95810406 6.26060716 -6 8 C-4.55746343 4.63408134 -2.66735273 2.48952921 0 0 Z " fill="#E8C786" transform="translate(511,313)"/>
<path d="M0 0 C-8.08777123 4.34707774 -16.18062718 8.68449755 -24.27929688 13.01123047 C-26.62289545 14.2633468 -28.96518509 15.51779643 -31.30664062 16.77392578 C-34.18018916 18.3141147 -37.05804092 19.84589717 -39.9375 21.375 C-40.78723389 21.83237549 -41.63696777 22.28975098 -42.51245117 22.76098633 C-46.31333338 24.76878711 -49.65705806 26.52622452 -54 27 C-54 26.34 -54 25.68 -54 25 C-53.05745361 24.53343994 -52.11490723 24.06687988 -51.14379883 23.58618164 C-43.68430309 19.88142907 -36.26249858 16.11501737 -28.88671875 12.24609375 C-27.35750421 11.44710803 -25.82820709 10.64828032 -24.29882812 9.84960938 C-21.96352781 8.62990629 -19.63007772 7.40713521 -17.30102539 6.17553711 C-15.00095458 4.96065941 -12.69461718 3.75851871 -10.38671875 2.55859375 C-9.6868132 2.18480087 -8.98690765 1.811008 -8.26579285 1.42588806 C-3.3412982 -1.11376607 -3.3412982 -1.11376607 0 0 Z " fill="#11121C" transform="translate(635,688)"/>
<path d="M0 0 C0.12221675 20.03038484 -0.06015301 39.98575828 -1 60 C-1.33 60 -1.66 60 -2 60 C-2.33 41.85 -2.66 23.7 -3 5 C-4.32 6.32 -5.64 7.64 -7 9 C-7.66 8.67 -8.32 8.34 -9 8 C-7.6905332 6.66368764 -6.37734515 5.33102075 -5.0625 4 C-3.96615234 2.88625 -3.96615234 2.88625 -2.84765625 1.75 C-1 0 -1 0 0 0 Z " fill="#EBBC7E" transform="translate(710,268)"/>
<path d="M0 0 C5.17032571 0.57907648 9.25607113 3.0590775 13.75 5.5 C14.58474854 5.94633789 15.41949707 6.39267578 16.27954102 6.85253906 C18.00884824 7.77740714 19.7367872 8.70483792 21.46337891 9.63476562 C25.27981148 11.6888071 29.1078283 13.72077704 32.9375 15.75 C33.63061279 16.11794678 34.32372559 16.48589355 35.0378418 16.86499023 C40.97687534 20.00901788 46.96857282 23.03658202 53 26 C50.1630421 27.18495018 49.09911857 27.0389029 46.18530273 25.89526367 C45.11223877 25.32525635 44.0391748 24.75524902 42.93359375 24.16796875 C42.05257744 23.70656494 42.05257744 23.70656494 41.15376282 23.23583984 C39.2420444 22.23116956 37.33986728 21.20974977 35.4375 20.1875 C34.12913214 19.49480708 32.82020984 18.80316043 31.51074219 18.11254883 C28.89643566 16.73189515 26.28562707 15.3449385 23.67724609 13.953125 C20.42987981 12.22333082 17.1664242 10.52678398 13.89453125 8.84375 C13.01289307 8.38846924 12.13125488 7.93318848 11.22290039 7.46411133 C9.60771225 6.6302858 7.99107119 5.79926703 6.37280273 4.97143555 C1.11336392 2.22672784 1.11336392 2.22672784 0 0 Z " fill="#E4BE80" transform="translate(446,715)"/>
<path d="M0 0 C3.28297744 3.17707494 6.3094914 6.49287249 9.3125 9.9375 C19.04445743 20.71898225 32.92203142 29.22911556 47 33 C41.69780386 34.81138375 37.82053398 32.29609645 33 30 C20.39560023 23.72724964 7.96270291 14.88797899 0 3 C0 2.01 0 1.02 0 0 Z " fill="#EBC484" transform="translate(525,609)"/>
<path d="M0 0 C4.32897237 4.10240933 7.93507726 8.58624099 11.5625 13.3125 C12.47080566 14.49042114 12.47080566 14.49042114 13.39746094 15.69213867 C15.26935131 18.12476616 17.13481215 20.56223142 19 23 C19.58958496 23.76570312 20.17916992 24.53140625 20.78662109 25.3203125 C22.44775834 27.47936776 24.10037227 29.64464328 25.75 31.8125 C26.50132202 32.78860229 26.50132202 32.78860229 27.26782227 33.78442383 C29.75055065 37.07357486 31.70082728 40.03450186 33 44 C28.73046476 39.94513413 25.14889614 35.53802395 21.5625 30.875 C20.96356934 30.09962891 20.36463867 29.32425781 19.74755859 28.52539062 C15.15540766 22.55547491 10.61935485 16.54383277 6.125 10.5 C5.51213135 9.68128418 4.8992627 8.86256836 4.26782227 8.01904297 C3.70764404 7.25994629 3.14746582 6.50084961 2.5703125 5.71875 C2.07289551 5.04779297 1.57547852 4.37683594 1.06298828 3.68554688 C0 2 0 2 0 0 Z " fill="#12111A" transform="translate(417,587)"/>
<path d="M0 0 C2.56942178 2.37177395 4.62479499 4.84061731 6.625 7.6875 C15.54287956 19.74232211 28.13865039 27.83176483 42 33 C42 33.33 42 33.66 42 34 C27.85422046 33.47608224 16.13494717 21.64833053 6.7265625 11.98828125 C0 4.24208145 0 4.24208145 0 0 Z " fill="#EECD8B" transform="translate(450,229)"/>
<path d="M0 0 C0 0.99 0 1.98 0 3 C-24.88003096 16.29334365 -24.88003096 16.29334365 -30 18 C-30.66 17.67 -31.32 17.34 -32 17 C-30.63875 16.1028125 -30.63875 16.1028125 -29.25 15.1875 C-27.50406691 14.01235273 -25.76840023 12.81472018 -24.125 11.5 C-20.31691284 8.81193847 -16.15820249 6.4020855 -11.546875 5.54296875 C-8.70710039 4.93755668 -6.69013351 3.89425682 -4.1875 2.4375 C-3.39730469 1.98246094 -2.60710938 1.52742187 -1.79296875 1.05859375 C-1.20128906 0.70925781 -0.60960937 0.35992188 0 0 Z " fill="#E3BA7E" transform="translate(603,700)"/>
<path d="M0 0 C0.33 0 0.66 0 1 0 C1 16.5 1 33 1 50 C-2.63 51.65 -6.26 53.3 -10 55 C-10 54.34 -10 53.68 -10 53 C-9.071875 52.62875 -8.14375 52.2575 -7.1875 51.875 C-3.25575117 49.56220657 -2.60640592 48.24392494 -1 44 C-0.55185205 40.59619304 -0.51181156 37.21914707 -0.48828125 33.7890625 C-0.47033005 32.82092621 -0.45237885 31.85278992 -0.43388367 30.85531616 C-0.37992205 27.77858773 -0.34593011 24.7020132 -0.3125 21.625 C-0.27931447 19.53253074 -0.24482367 17.44008174 -0.20898438 15.34765625 C-0.12420354 10.23188211 -0.05732472 5.11615249 0 0 Z " fill="#DBB079" transform="translate(800,690)"/>
<path d="M0 0 C-19.11546807 10.64508895 -19.11546807 10.64508895 -28.0625 15.25 C-29.14660156 15.81203125 -30.23070312 16.3740625 -31.34765625 16.953125 C-34 18 -34 18 -37 17 C-33.46060706 14.83252122 -29.86792479 12.8435791 -26.18359375 10.93359375 C-25.08982422 10.36576172 -23.99605469 9.79792969 -22.86914062 9.21289062 C-21.73669922 8.62701172 -20.60425781 8.04113281 -19.4375 7.4375 C-18.30119141 6.84775391 -17.16488281 6.25800781 -15.99414062 5.65039062 C-12.99794089 4.09660917 -10.0015348 2.54345041 -7 1 C-6.28465088 0.58886963 -5.56930176 0.17773926 -4.83227539 -0.24584961 C-3 -1 -3 -1 0 0 Z " fill="#181821" transform="translate(579,717)"/>
<path d="M0 0 C3.82923954 3.67717588 7.13629643 7.54868653 10.375 11.75 C10.85396729 12.36617187 11.33293457 12.98234375 11.82641602 13.6171875 C12.78126875 14.84597997 13.73483664 16.07577211 14.68701172 17.30664062 C15.82745851 18.77747345 16.97735401 20.24097059 18.12890625 21.703125 C21.27530231 25.69898003 24.25486599 29.71759095 27 34 C26.01 34 25.02 34 24 34 C22.05408174 31.70996787 20.30395135 29.43926696 18.5625 27 C17.49656298 25.5387201 16.4301418 24.07779328 15.36328125 22.6171875 C14.53884521 21.47975098 14.53884521 21.47975098 13.69775391 20.31933594 C12.00532019 18.00726801 10.28144846 15.72291293 8.54296875 13.4453125 C7.99116943 12.72085938 7.43937012 11.99640625 6.87084961 11.25 C5.80266344 9.84956433 4.7319201 8.45107492 3.65844727 7.0546875 C0 2.22340133 0 2.22340133 0 0 Z " fill="#12111B" transform="translate(464,649)"/>
<path d="M0 0 C-1.09528739 3.28586216 -1.70728996 3.79298949 -4.3125 5.875 C-10.4306123 11.03471948 -15.64889446 17.06919135 -21 23 C-21.66 22.67 -22.32 22.34 -23 22 C-23 19 -23 19 -21.70703125 17.59765625 C-21.08183594 17.09105469 -20.45664062 16.58445312 -19.8125 16.0625 C-17.01799346 13.73458072 -14.29408819 11.36553873 -11.64453125 8.875 C-11.06405029 8.329646 -10.48356934 7.78429199 -9.88549805 7.22241211 C-8.71862297 6.12220636 -7.55467978 5.01888212 -6.39379883 3.91235352 C-2.21983275 0 -2.21983275 0 0 0 Z " fill="#DDB97F" transform="translate(469,352)"/>
<path d="M0 0 C3.9922348 3.83840556 7.49517071 7.91531642 10.9375 12.25 C11.46311523 12.9087915 11.98873047 13.56758301 12.53027344 14.24633789 C16.28671783 18.99662149 19.81427553 23.84415645 23 29 C22.34 29.33 21.68 29.66 21 30 C19.85724609 28.47632813 19.85724609 28.47632813 18.69140625 26.921875 C18.19543945 26.26074707 17.69947266 25.59961914 17.18847656 24.91845703 C16.09996144 23.46677665 15.01207579 22.01462407 13.92480469 20.56201172 C11.36389193 17.14217335 8.79776002 13.72730189 6.19921875 10.3359375 C5.782771 9.78969727 5.36632324 9.24345703 4.93725586 8.68066406 C3.81027278 7.20397556 2.67870131 5.73079214 1.546875 4.2578125 C0 2 0 2 0 0 Z " fill="#E8C584" transform="translate(468,657)"/>
<path d="M0 0 C4.54938662 4.2899159 8.31140429 9.05436851 12.125 14 C12.74503906 14.7940625 13.36507813 15.588125 14.00390625 16.40625 C16.90879833 20.15449785 19.70065621 23.83768424 22 28 C21.34 28.33 20.68 28.66 20 29 C19.60731934 28.46632813 19.21463867 27.93265625 18.81005859 27.3828125 C16.99874637 24.92159953 15.18687628 22.46079776 13.375 20 C12.75753906 19.16082031 12.14007813 18.32164062 11.50390625 17.45703125 C10.89160156 16.62558594 10.27929688 15.79414062 9.6484375 14.9375 C9.0409668 14.11121094 8.43349609 13.28492188 7.80761719 12.43359375 C6.61838283 10.83252837 5.41617933 9.24100145 4.20019531 7.66015625 C3.65202148 6.94730469 3.10384766 6.23445312 2.5390625 5.5 C2.04873535 4.8709375 1.5584082 4.241875 1.05322266 3.59375 C0 2 0 2 0 0 Z " fill="#E7C483" transform="translate(446,628)"/>
<path d="M0 0 C5.03256272 4.64544252 7.71696985 11.3710109 9 18 C9.15419056 22.67197383 9.11664973 27.32753028 9 32 C8.67 32 8.34 32 8 32 C7.89042969 31.26136719 7.78085937 30.52273438 7.66796875 29.76171875 C6.19555668 20.34067567 4.4592438 11.49379771 0 3 C0 2.01 0 1.02 0 0 Z " fill="#15161F" transform="translate(661,530)"/>
<path d="M0 0 C0 0.99 0 1.98 0 3 C-3.52316308 5.07492045 -7.07086281 7.10366851 -10.625 9.125 C-11.62402344 9.71410156 -12.62304688 10.30320312 -13.65234375 10.91015625 C-15.11220703 11.73193359 -15.11220703 11.73193359 -16.6015625 12.5703125 C-17.93695068 13.34012451 -17.93695068 13.34012451 -19.29931641 14.12548828 C-22.86840011 15.28119772 -24.65715272 14.56630454 -28 13 C-28.33 12.34 -28.66 11.68 -29 11 C-27.09927734 11.17015625 -27.09927734 11.17015625 -25.16015625 11.34375 C-18.97856674 11.34375 -14.62755515 8.59956338 -9.4375 5.5 C-8.06754883 4.71302734 -8.06754883 4.71302734 -6.66992188 3.91015625 C-4.43604383 2.62362963 -2.21396663 1.32039884 0 0 Z " fill="#E8C484" transform="translate(536,879)"/>
<path d="M0 0 C0 0.99 0 1.98 0 3 C-2.88075068 4.57115597 -5.78137809 6.1013586 -8.6875 7.625 C-9.50412109 8.07101562 -10.32074219 8.51703125 -11.16210938 8.9765625 C-17.29073455 12.1525302 -17.29073455 12.1525302 -20.90625 11.375 C-21.5971875 10.92125 -22.288125 10.4675 -23 10 C-23.928125 9.46375 -24.85625 8.9275 -25.8125 8.375 C-26.8953125 7.694375 -26.8953125 7.694375 -28 7 C-27.34 6.67 -26.68 6.34 -26 6 C-25.0925 6.515625 -24.185 7.03125 -23.25 7.5625 C-20.14393543 9.33379491 -20.14393543 9.33379491 -17.2578125 8.31640625 C-13.60859097 6.84184072 -10.12386696 5.17191289 -6.625 3.375 C-5.66400391 2.88773438 -5.66400391 2.88773438 -4.68359375 2.390625 C-3.12052499 1.59742593 -1.55999378 0.79922969 0 0 Z " fill="#15161E" transform="translate(530,768)"/>
<path d="M0 0 C3.92347806 1.61609929 6.71412484 4.31315886 9.75 7.1875 C10.81702144 8.1830284 11.88473107 9.17781969 12.953125 10.171875 C13.47197266 10.65591797 13.99082031 11.13996094 14.52539062 11.63867188 C16.48243993 13.44537832 18.48532234 15.19548548 20.5 16.9375 C23.1072226 19.19709292 25.60850894 21.50886348 28 24 C24.45758001 24 24.15581893 23.54599081 21.70703125 21.18359375 C21.08014404 20.58716064 20.45325684 19.99072754 19.80737305 19.3762207 C19.14906494 18.73644287 18.49075684 18.09666504 17.8125 17.4375 C16.4618777 16.14745244 15.11032375 14.85837951 13.7578125 13.5703125 C13.10973633 12.9505957 12.46166016 12.33087891 11.79394531 11.69238281 C9.08643774 9.13815819 6.27205802 6.71988961 3.41796875 4.33203125 C2 3 2 3 0 0 Z " fill="#10111A" transform="translate(376,323)"/>
<path d="M0 0 C3.17325097 1.3597823 4.85234792 2.73588489 6.875 5.51953125 C7.38546875 6.21240234 7.8959375 6.90527344 8.421875 7.61914062 C8.94265625 8.34294922 9.4634375 9.06675781 10 9.8125 C11.04100953 11.23615783 12.08266229 12.65934557 13.125 14.08203125 C13.61355469 14.75830566 14.10210937 15.43458008 14.60546875 16.13134766 C15.81334256 17.74988164 17.11797283 19.29534352 18.4375 20.82421875 C18.953125 21.54222656 19.46875 22.26023437 20 23 C19.67 23.99 19.34 24.98 19 26 C16.76430201 23.17176735 14.53768956 20.33650537 12.3125 17.5 C11.68666016 16.70851563 11.06082031 15.91703125 10.41601562 15.1015625 C6.60398803 10.23174715 3.18136651 5.30430516 0 0 Z " fill="#13141C" transform="translate(395,559)"/>
<path d="M0 0 C0.66 0.33 1.32 0.66 2 1 C-5.78450396 9.08845423 -13.97735547 16.30645673 -23 23 C-21.65045237 19.95606633 -20.17843734 17.97278312 -17.734375 15.72265625 C-17.09113281 15.12646484 -16.44789063 14.53027344 -15.78515625 13.91601562 C-15.11355469 13.30435547 -14.44195313 12.69269531 -13.75 12.0625 C-13.09386719 11.45470703 -12.43773437 10.84691406 -11.76171875 10.22070312 C-7.93359754 6.69319978 -4.02844068 3.29656559 0 0 Z " fill="#EACA88" transform="translate(698,278)"/>
<path d="M0 0 C0.66 0.66 1.32 1.32 2 2 C-1.39029827 3.8229962 -4.78811748 5.6315081 -8.1875 7.4375 C-9.14720703 7.95376953 -10.10691406 8.47003906 -11.09570312 9.00195312 C-12.49272461 9.74155273 -12.49272461 9.74155273 -13.91796875 10.49609375 C-14.77156982 10.95169678 -15.6251709 11.4072998 -16.50463867 11.87670898 C-19.01579537 13.00711031 -21.28785751 13.57310835 -24 14 C-24 13.34 -24 12.68 -24 12 C-16 8 -8 4 0 0 Z " fill="#1C1B22" transform="translate(605,701)"/>
<path d="M0 0 C7.59343495 2.13565358 13.25216276 8.43975502 17.1015625 15.06640625 C18.31036012 17.66794894 18.78630545 20.15073936 19 23 C18.34 23 17.68 23 17 23 C16.76925781 22.43152344 16.53851562 21.86304688 16.30078125 21.27734375 C12.76237561 12.89985372 9.11497516 7.3770808 1.57421875 2.1640625 C1.05472656 1.77992188 0.53523437 1.39578125 0 1 C0 0.67 0 0.34 0 0 Z " fill="#E4BC7F" transform="translate(610,534)"/>
<path d="M0 0 C7.48983424 3.32157866 11.53089746 10.53329016 15.5 17.375 C16.04382324 18.3036084 16.04382324 18.3036084 16.59863281 19.25097656 C17.46704185 20.79775026 18.24225608 22.39610871 19 24 C18.67 24.66 18.34 25.32 18 26 C17.55515259 25.29037109 17.55515259 25.29037109 17.10131836 24.56640625 C9.86000457 12.85985287 9.86000457 12.85985287 1.14453125 2.25 C0 1 0 1 0 0 Z " fill="#0E101B" transform="translate(560,145)"/>
<path d="M0 0 C0.66 0.33 1.32 0.66 2 1 C1.01 2.32 0.02 3.64 -1 5 C-0.47921875 5.21398437 0.0415625 5.42796875 0.578125 5.6484375 C3.99999089 7.55805943 6.79568602 10.06675888 9.75 12.625 C10.35199219 13.140625 10.95398438 13.65625 11.57421875 14.1875 C13.05260866 15.45469135 14.52673171 16.72685775 16 18 C15.67 18.66 15.34 19.32 15 20 C8.9392019 15.06806664 2.90509753 10.1177512 -3 5 C-1.125 1.125 -1.125 1.125 0 0 Z " fill="#0E1019" transform="translate(592,587)"/>
<path d="M0 0 C-2.144533 2.39197912 -3.85513009 3.93163443 -6.78125 5.3125 C-10.37351093 7.19582127 -12.92320637 9.41569378 -15.875 12.1875 C-16.37257813 12.65091797 -16.87015625 13.11433594 -17.3828125 13.59179688 C-18.59429003 14.72173265 -19.79798129 15.86000716 -21 17 C-21 14 -21 14 -19.49609375 12.09765625 C-15.25279581 7.9026691 -11.34389261 4.6719463 -6 2 C-6 1.34 -6 0.68 -6 0 C-3.50907189 -1.24546405 -2.58919267 -0.7767578 0 0 Z " fill="#B89569" transform="translate(586,531)"/>
<path d="M0 0 C2.42478018 4.46670034 3.99116447 9.29695763 5.70117188 14.06835938 C6.85719031 17.22301837 7.96805489 19.94870283 9.75390625 22.81640625 C10.16511719 23.53699219 10.57632812 24.25757813 11 25 C10.67 25.99 10.34 26.98 10 28 C8.50077792 25.27325952 7.00860125 22.54336223 5.53125 19.8046875 C4.46122662 17.84479774 3.34219941 15.91122661 2.1875 14 C0.39115484 9.46186486 0.24988675 4.84263296 0 0 Z " fill="#11131C" transform="translate(441,208)"/>
<path d="M0 0 C3.67793249 1.56525964 6.21212508 3.85396108 9.125 6.5625 C12.31507509 9.63719186 12.31507509 9.63719186 16 12 C16.33 9.69 16.66 7.38 17 5 C17.33 5 17.66 5 18 5 C18.25 11.625 18.25 11.625 16 15 C15.10796875 14.24074219 14.2159375 13.48148438 13.296875 12.69921875 C12.11463432 11.69525246 10.93233982 10.69134954 9.75 9.6875 C9.16347656 9.18798828 8.57695313 8.68847656 7.97265625 8.17382812 C5.04373434 5.68918088 2.11144626 3.2565687 -1 1 C-0.67 0.67 -0.34 0.34 0 0 Z " fill="#F1CB88" transform="translate(611,568)"/>
<path d="M0 0 C3.03509424 -0.39246908 5.06345328 -0.63722533 8 0 C10.55894766 2.12753154 12.21671406 4.71204593 14 7.5 C14.48855469 8.21542969 14.97710937 8.93085938 15.48046875 9.66796875 C16.67797726 11.42901067 17.84237366 13.21248873 19 15 C18.34 15.66 17.68 16.32 17 17 C13.52669684 13.80090498 11.6431646 11.38177227 10 7 C7.77312006 3.50061724 6.83028957 2.20757239 2.75 1.1875 C1.8425 1.125625 0.935 1.06375 0 1 C0 0.67 0 0.34 0 0 Z " fill="#13131C" transform="translate(388,498)"/>
<path d="M0 0 C3.69333099 1.60655532 6.48694984 3.92239605 9.5625 6.5 C12.32911711 8.81239639 14.99876548 10.99917699 18 13 C18 13.66 18 14.32 18 15 C16.02 15 14.04 15 12 15 C12 14.01 12 13.02 12 12 C10.04420699 10.01510293 8.10105566 8.19212922 6 6.375 C3.9810481 4.6015963 1.98413792 2.81288792 0 1 C0 0.67 0 0.34 0 0 Z " fill="#E6C181" transform="translate(588,592)"/>
<path d="M0 0 C5.14965858 0.58706108 9.26176492 3.01930252 13.75 5.4375 C14.52988281 5.84548828 15.30976563 6.25347656 16.11328125 6.67382812 C21.87164252 9.74328505 21.87164252 9.74328505 23 12 C17.6462535 10.44347945 12.99849053 8.0182491 8.125 5.375 C7.34125 4.95476563 6.5575 4.53453125 5.75 4.1015625 C3.83107943 3.0718978 1.91522397 2.03652433 0 1 C0 0.67 0 0.34 0 0 Z " fill="#0E0F1B" transform="translate(437,769)"/>
<path d="M0 0 C0.66 0.33 1.32 0.66 2 1 C-0.39443843 3.08494093 -2.79080078 5.16765854 -5.1875 7.25 C-6.19780273 8.12978516 -6.19780273 8.12978516 -7.22851562 9.02734375 C-10.76209158 12.09552189 -14.31684867 15.11069293 -18 18 C-14.66334371 10.21446866 -6.89907668 4.55045483 0 0 Z " fill="#F1CF8C" transform="translate(475,137)"/>
<path d="M0 0 C0.66 0.66 1.32 1.32 2 2 C-1.12147545 3.67333158 -4.24773498 5.33751716 -7.375 7 C-8.26445313 7.47695313 -9.15390625 7.95390625 -10.0703125 8.4453125 C-10.92109375 8.89648438 -11.771875 9.34765625 -12.6484375 9.8125 C-13.43395996 10.23144531 -14.21948242 10.65039062 -15.02880859 11.08203125 C-17 12 -17 12 -19 12 C-19 11.34 -19 10.68 -19 10 C-12.73 6.7 -6.46 3.4 0 0 Z " fill="#14141E" transform="translate(639,826)"/>
<path d="M0 0 C0.56847656 0.21785156 1.13695312 0.43570313 1.72265625 0.66015625 C1.09359375 1.00046875 0.46453125 1.34078125 -0.18359375 1.69140625 C-6.5064918 5.27184249 -11.39644826 9.28844445 -16.27734375 14.66015625 C-16.27734375 11.12848187 -15.25539853 9.88877282 -12.97265625 7.29296875 C-4.6760263 -0.69779466 -4.6760263 -0.69779466 0 0 Z " fill="#D9AF78" transform="translate(580.27734375,532.33984375)"/>
<path d="M0 0 C4.10104002 0.55557761 6.60373112 1.82735595 9.9375 4.25 C10.79988281 4.87519531 11.66226563 5.50039062 12.55078125 6.14453125 C15.45366421 8.34368501 18.25055964 10.61232811 21 13 C20.34 13.66 19.68 14.32 19 15 C18.19949219 14.23816406 18.19949219 14.23816406 17.3828125 13.4609375 C12.51501029 8.96369463 7.65872265 5.36187399 1.87109375 2.12890625 C1.25363281 1.75636719 0.63617187 1.38382813 0 1 C0 0.67 0 0.34 0 0 Z " fill="#ECC988" transform="translate(541,134)"/>
<path d="M0 0 C4.95998472 0.61632946 8.93671966 2.79835629 13.3125 5.0625 C14.05306641 5.43955078 14.79363281 5.81660156 15.55664062 6.20507812 C17.37387522 7.13128157 19.18732404 8.06490629 21 9 C21 9.66 21 10.32 21 11 C18.00843299 10.36355878 15.58061047 9.38047987 12.890625 7.93359375 C12.13652344 7.53076172 11.38242187 7.12792969 10.60546875 6.71289062 C9.43951172 6.08157227 9.43951172 6.08157227 8.25 5.4375 C7.45722656 5.01275391 6.66445313 4.58800781 5.84765625 4.15039062 C3.89628933 3.10417583 1.94720186 2.05394047 0 1 C0 0.67 0 0.34 0 0 Z " fill="#10111B" transform="translate(461,868)"/>
<path d="M0 0 C3.67189306 1.62612407 6.61621667 3.87957994 9.75 6.375 C11.22726562 7.53128906 11.22726562 7.53128906 12.734375 8.7109375 C15 11 15 11 15 15 C13.02 15.99 13.02 15.99 11 17 C11.66 15.35 12.32 13.7 13 12 C12.31292969 11.46890625 11.62585938 10.9378125 10.91796875 10.390625 C10.01691406 9.68421875 9.11585938 8.9778125 8.1875 8.25 C7.29417969 7.55390625 6.40085937 6.8578125 5.48046875 6.140625 C3.25694367 4.22174036 1.6399079 2.41900036 0 0 Z " fill="#0F1019" transform="translate(657,614)"/>
<path d="M0 0 C0.66 0.33 1.32 0.66 2 1 C-3.80460966 6.91166188 -9.66519646 12.65611545 -16 18 C-16.66 17.67 -17.32 17.34 -18 17 C-12.19539034 11.08833812 -6.33480354 5.34388455 0 0 Z " fill="#EAC584" transform="translate(606,572)"/>
<path d="M0 0 C4.95998472 0.61632946 8.93671966 2.79835629 13.3125 5.0625 C14.05306641 5.43955078 14.79363281 5.81660156 15.55664062 6.20507812 C17.37387522 7.13128157 19.18732404 8.06490629 21 9 C21 9.66 21 10.32 21 11 C15.99886406 9.51991304 11.67084403 7.3681664 7.125 4.875 C6.43664062 4.50246094 5.74828125 4.12992188 5.0390625 3.74609375 C3.35705202 2.83500474 1.67819564 1.91809685 0 1 C0 0.67 0 0.34 0 0 Z " fill="#10121D" transform="translate(384,685)"/>
<path d="M0 0 C2.48002179 3.16259659 4.53686515 6.46810813 6.5625 9.9375 C7.46162109 11.46697266 7.46162109 11.46697266 8.37890625 13.02734375 C9.80694694 15.64599186 10.96607472 18.20685857 12 21 C6.35442087 16.01860665 1.90472702 9.74815478 0.125 2.375 C0.08375 1.59125 0.0425 0.8075 0 0 Z " fill="#13141C" transform="translate(519,594)"/>
<path d="M0 0 C-2.99844481 1.9989632 -5.46134513 2.91035455 -8.875 4 C-12.64657628 5.20992923 -16.33871658 6.48684966 -20 8 C-19 5 -19 5 -16.77734375 3.61328125 C-10.85504643 0.9005921 -6.51996274 -0.61509082 0 0 Z " fill="#E4C082" transform="translate(498,129)"/>
<path d="M0 0 C3.89533407 2.21471462 7.3362661 4.73776911 10.8125 7.5625 C11.78832031 8.34753906 12.76414062 9.13257813 13.76953125 9.94140625 C14.87361328 10.96041016 14.87361328 10.96041016 16 12 C16 12.66 16 13.32 16 14 C12.0798695 12.32538115 8.98782939 9.71110116 5.75 7 C5.19570313 6.54882812 4.64140625 6.09765625 4.0703125 5.6328125 C2.67268418 4.46926971 1.33114437 3.23905262 0 2 C0 1.34 0 0.68 0 0 Z " fill="#E2C082" transform="translate(636,632)"/>
<path d="M0 0 C4.55315948 0.61811534 8.28459767 2.46765893 12.3125 4.5625 C13.28026367 5.0565332 13.28026367 5.0565332 14.26757812 5.56054688 C15.84785228 6.36824255 17.42432105 7.18337613 19 8 C19 8.66 19 9.32 19 10 C16.17919621 9.38737369 13.86191144 8.52845191 11.328125 7.15234375 C10.66425781 6.79462891 10.00039063 6.43691406 9.31640625 6.06835938 C8.63449219 5.69517578 7.95257813 5.32199219 7.25 4.9375 C6.55261719 4.56044922 5.85523438 4.18339844 5.13671875 3.79492188 C3.42231698 2.86726612 1.71086339 1.93416546 0 1 C0 0.67 0 0.34 0 0 Z " fill="#11121C" transform="translate(386,828)"/>
<path d="M0 0 C-0.19140625 1.86328125 -0.19140625 1.86328125 -1 4 C-3.21484375 5.23046875 -3.21484375 5.23046875 -5.9375 6.1875 C-6.83339844 6.51105469 -7.72929687 6.83460938 -8.65234375 7.16796875 C-9.81443359 7.57982422 -9.81443359 7.57982422 -11 8 C-11.99 8.495 -11.99 8.495 -13 9 C-11.56356879 5.34646845 -9.94164969 4.06021834 -6.5 2.25 C-5.7059375 1.82203125 -4.911875 1.3940625 -4.09375 0.953125 C-2 0 -2 0 0 0 Z " fill="#DFBB7F" transform="translate(273,446)"/>
<path d="M0 0 C4.05214179 1.74522938 7.30603961 4.4228157 10.75 7.125 C11.35199219 7.59292969 11.95398438 8.06085938 12.57421875 8.54296875 C14.05186616 9.69225007 15.52626005 10.84571235 17 12 C16.34 12.66 15.68 13.32 15 14 C14.25234375 13.38511719 13.5046875 12.77023437 12.734375 12.13671875 C11.74953125 11.32847656 10.7646875 10.52023438 9.75 9.6875 C8.77546875 8.88699219 7.8009375 8.08648437 6.796875 7.26171875 C5.1165372 5.9028981 3.40520293 4.57950605 1.640625 3.33203125 C1.09921875 2.89246094 0.5578125 2.45289063 0 2 C0 1.34 0 0.68 0 0 Z " fill="#14141D" transform="translate(460,245)"/>
<path d="M0 0 C6.17272598 2.11851397 10.94993406 6.38183726 14.1796875 12.08203125 C15 14 15 14 16 17 C15.34 17 14.68 17 14 17 C12.8775463 15.50142065 11.82685628 13.948761 10.8125 12.375 C7.65648491 7.70064992 4.39316496 4.49660068 0 1 C0 0.67 0 0.34 0 0 Z " fill="#0B0E17" transform="translate(613,534)"/>
<path d="M0 0 C4.06877768 1.65109819 6.97714121 4.53595778 10.125 7.5 C10.66253906 7.99886719 11.20007813 8.49773437 11.75390625 9.01171875 C13.86763446 10.97785496 15.95863889 12.95863889 18 15 C14.37779259 15 13.97556358 14.38698663 11.42578125 11.97265625 C10.75869141 11.34552734 10.09160156 10.71839844 9.40429688 10.07226562 C8.71400391 9.40904297 8.02371094 8.74582031 7.3125 8.0625 C6.61060547 7.40314453 5.90871094 6.74378906 5.18554688 6.06445312 C1.44342256 2.51870851 1.44342256 2.51870851 0 1 C0 0.67 0 0.34 0 0 Z " fill="#0F101A" transform="translate(404,348)"/>
<path d="M0 0 C6.00073223 4.31660302 11.54006063 9.02033308 17 14 C16.34 14.66 15.68 15.32 15 16 C14.50371094 15.49210937 14.00742187 14.98421875 13.49609375 14.4609375 C10.10704316 11.02687106 6.7215102 7.69962192 3 4.625 C2.01 3.75875 1.02 2.8925 0 2 C0 1.34 0 0.68 0 0 Z " fill="#10111B" transform="translate(348,297)"/>
<path d="M0 0 C-4.70455203 5.17500723 -11.27750776 6.81367784 -18 8 C-14.95696164 5.61161055 -11.81114246 3.64107578 -8.4375 1.75 C-7.48746094 1.20859375 -6.53742187 0.6671875 -5.55859375 0.109375 C-3 -1 -3 -1 0 0 Z " fill="#CAA371" transform="translate(544,788)"/>
<path d="M0 0 C-2.45570175 1.33838733 -4.91429916 2.67086232 -7.375 4 C-8.42300781 4.57234375 -8.42300781 4.57234375 -9.4921875 5.15625 C-14.7734375 8 -14.7734375 8 -17 8 C-17 7.34 -17 6.68 -17 6 C-14.92426919 4.79715599 -12.84116905 3.61294299 -10.75 2.4375 C-9.87021484 1.92413086 -9.87021484 1.92413086 -8.97265625 1.40039062 C-5.48388498 -0.5399934 -3.78293007 -1.24059969 0 0 Z " fill="#14151F" transform="translate(624,750)"/>
<path d="M0 0 C-2.45570175 1.33838733 -4.91429916 2.67086232 -7.375 4 C-8.42300781 4.57234375 -8.42300781 4.57234375 -9.4921875 5.15625 C-14.7734375 8 -14.7734375 8 -17 8 C-17 7.34 -17 6.68 -17 6 C-14.92426919 4.79715599 -12.84116905 3.61294299 -10.75 2.4375 C-9.87021484 1.92413086 -9.87021484 1.92413086 -8.97265625 1.40039062 C-5.48388498 -0.5399934 -3.78293007 -1.24059969 0 0 Z " fill="#E4BE7F" transform="translate(613,730)"/>
<path d="M0 0 C0.66 0.33 1.32 0.66 2 1 C-2.66666667 5.66666667 -7.33333333 10.33333333 -12 15 C-10.77994609 8.3768502 -5.21964486 3.83797416 0 0 Z " fill="#111219" transform="translate(542,510)"/>
<path d="M0 0 C0.66 0.33 1.32 0.66 2 1 C-2.98860067 6.22741666 -8.08287321 10.84542161 -14 15 C-12.40153531 10.75091664 -9.1869608 8.17774261 -5.875 5.25 C-5.31167969 4.74339844 -4.74835938 4.23679687 -4.16796875 3.71484375 C-2.78348469 2.47115468 -1.39238512 1.23483695 0 0 Z " fill="#F0CE8A" transform="translate(484,337)"/>
<path d="M0 0 C6.16356805 1.6658292 11.48259656 4.87805286 17 8 C15.421875 8.71484375 15.421875 8.71484375 13 9 C10.61505544 7.94290501 8.48765933 6.8682111 6.25 5.5625 C5.64800781 5.22412109 5.04601562 4.88574219 4.42578125 4.53710938 C2.94431935 3.70231735 1.47129392 2.85258506 0 2 C0 1.34 0 0.68 0 0 Z " fill="#E5C182" transform="translate(316,703)"/>
<path d="M0 0 C-1.72440365 0.98753064 -3.45475026 1.96468806 -5.1875 2.9375 C-6.15042969 3.48277344 -7.11335937 4.02804687 -8.10546875 4.58984375 C-10.80662842 5.90579333 -13.04356101 6.57301887 -16 7 C-13.71415563 3.57123345 -12.2557589 2.91760694 -8.5625 1.25 C-7.59441406 0.80140625 -6.62632812 0.3528125 -5.62890625 -0.109375 C-3 -1 -3 -1 0 0 Z " fill="#10121D" transform="translate(558,728)"/>
<path d="M0 0 C0 2 0 2 -1.50390625 3.55078125 C-5.86108233 7.27959797 -10.27337526 10.75044549 -15 14 C-13.41102996 9.95190965 -10.69374052 7.62436647 -7.5 4.75 C-7.00113281 4.29109375 -6.50226562 3.8321875 -5.98828125 3.359375 C-2.25897507 0 -2.25897507 0 0 0 Z " fill="#EECF8B" transform="translate(646,326)"/>
<path d="M0 0 C4.14298667 0.59834725 7.18194377 2.00664285 10.8125 4.0625 C11.78832031 4.61035156 12.76414062 5.15820312 13.76953125 5.72265625 C14.50558594 6.14417969 15.24164063 6.56570313 16 7 C14.390625 7.7109375 14.390625 7.7109375 12 8 C8.984375 6.6015625 8.984375 6.6015625 5.75 4.625 C4.67234375 3.97789062 3.5946875 3.33078125 2.484375 2.6640625 C1.66453125 2.11492188 0.8446875 1.56578125 0 1 C0 0.67 0 0.34 0 0 Z " fill="#181820" transform="translate(329,684)"/>
<path d="M0 0 C6.39335337 0.4795015 11.51948626 3.51948626 16 8 C9.78310074 7.67279478 4.99100726 4.47200505 0 1 C0 0.67 0 0.34 0 0 Z " fill="#E8C484" transform="translate(379,822)"/>
<path d="M0 0 C-2.12232979 1.17176518 -4.24757791 2.33754785 -6.375 3.5 C-6.97828125 3.83386719 -7.5815625 4.16773438 -8.203125 4.51171875 C-12.7734375 7 -12.7734375 7 -15 7 C-15 6.34 -15 5.68 -15 5 C-13.06891037 3.96709159 -11.129882 2.94901328 -9.1875 1.9375 C-8.10855469 1.36902344 -7.02960937 0.80054688 -5.91796875 0.21484375 C-3 -1 -3 -1 0 0 Z " fill="#13141E" transform="translate(605,760)"/>
<path d="M0 0 C0.515625 0.2475 1.03125 0.495 1.5625 0.75 C0.9025 0.75 0.2425 0.75 -0.4375 0.75 C-0.64375 1.389375 -0.85 2.02875 -1.0625 2.6875 C-2.4375 4.75 -2.4375 4.75 -5.3125 5.4375 C-6.34375 5.540625 -7.375 5.64375 -8.4375 5.75 C-9.77487094 6.06674575 -11.11038808 6.39270064 -12.4375 6.75 C-9.43459764 3.21717369 -4.76147692 -0.48835661 0 0 Z " fill="#E4BD7F" transform="translate(592.4375,739.25)"/>
<path d="M0 0 C3.90829085 0.5647301 5.89920223 2.42131971 8.75 5.0625 C9.54921875 5.79597656 10.3484375 6.52945313 11.171875 7.28515625 C11.77515625 7.85105469 12.3784375 8.41695312 13 9 C12.34 9.66 11.68 10.32 11 11 C7.33333333 7.33333333 3.66666667 3.66666667 0 0 Z " fill="#13141C" transform="translate(640,508)"/>
<path d="M0 0 C0.66 0.33 1.32 0.66 2 1 C-0.97 2.65 -3.94 4.3 -7 6 C-7 6.66 -7 7.32 -7 8 C-7.99 8.33 -8.98 8.66 -10 9 C-10.99 8.34 -11.98 7.68 -13 7 C-11.39805929 6.01719585 -9.79336258 5.03888283 -8.1875 4.0625 C-7.29417969 3.51722656 -6.40085937 2.97195313 -5.48046875 2.41015625 C-3 1 -3 1 0 0 Z " fill="#C9A170" transform="translate(687,711)"/>
<path d="M0 0 C3.2826932 1.49076434 5.93077441 3.38620321 8.75 5.625 C9.94882812 6.57246094 9.94882812 6.57246094 11.171875 7.5390625 C11.77515625 8.02117188 12.3784375 8.50328125 13 9 C12.34 9.66 11.68 10.32 11 11 C9.16086305 9.5489926 7.3288247 8.08898341 5.5 6.625 C4.4790625 5.81289063 3.458125 5.00078125 2.40625 4.1640625 C1.6121875 3.44992187 0.818125 2.73578125 0 2 C0 1.34 0 0.68 0 0 Z " fill="#15141D" transform="translate(613,572)"/>
<path d="M0 0 C0 3 0 3 -1.390625 4.71875 C-2.00421875 5.3065625 -2.6178125 5.894375 -3.25 6.5 C-4.20326172 7.41458984 -4.20326172 7.41458984 -5.17578125 8.34765625 C-7.0352165 10.03189846 -8.92421132 11.5884637 -11 13 C-11.66 12.67 -12.32 12.34 -13 12 C-8.71 8.04 -4.42 4.08 0 0 Z " fill="#0D0F18" transform="translate(682,290)"/>
<path d="M0 0 C5.09210286 3.56320845 9.22660027 7.04741286 13 12 C9.78541276 10.51804579 7.06664104 8.70259491 4.25 6.5625 C3.45078125 5.96566406 2.6515625 5.36882812 1.828125 4.75390625 C0.92320312 3.88572266 0.92320312 3.88572266 0 3 C0 2.01 0 1.02 0 0 Z " fill="#EECF8B" transform="translate(314,269)"/>
<path d="M0 0 C0.66 0 1.32 0 2 0 C1.71572583 1.58467728 1.42225182 3.1677057 1.125 4.75 C0.88136719 6.07257813 0.88136719 6.07257813 0.6328125 7.421875 C0.03203736 9.86947744 -0.77997117 11.80599857 -2 14 C-2.33 14 -2.66 14 -3 14 C-2.48594831 9.03083364 -1.76615118 4.70973649 0 0 Z " fill="#13151F" transform="translate(582,210)"/>
<path d="M0 0 C1.2406987 3.72209609 0.4506902 4.47616033 -1 8 C-1.2759478 9.92903132 -1.48449903 11.8689032 -1.625 13.8125 C-1.69976562 14.78832031 -1.77453125 15.76414063 -1.8515625 16.76953125 C-1.90054687 17.50558594 -1.94953125 18.24164063 -2 19 C-2.33 19 -2.66 19 -3 19 C-4.44363747 12.07054013 -3.65380731 6.26366968 0 0 Z " fill="#171921" transform="translate(444,172)"/>
<path d="M0 0 C0 0.99 0 1.98 0 3 C-2.40625 5.26171875 -2.40625 5.26171875 -5.5 7.6875 C-6.5209375 8.49574219 -7.541875 9.30398437 -8.59375 10.13671875 C-9.3878125 10.75160156 -10.181875 11.36648437 -11 12 C-11.66 11.67 -12.32 11.34 -13 11 C-11.39801112 9.53927468 -9.79332884 8.08150284 -8.1875 6.625 C-7.29417969 5.81289062 -6.40085937 5.00078125 -5.48046875 4.1640625 C-3 2 -3 2 0 0 Z " fill="#D1A776" transform="translate(475,139)"/>
<path d="M0 0 C2 3.75 2 3.75 2 6 C-3.445 8.475 -3.445 8.475 -9 11 C-9 10.34 -9 9.68 -9 9 C-8.071875 8.62875 -7.14375 8.2575 -6.1875 7.875 C-2.4739697 5.69057041 -1.57312496 3.93281241 0 0 Z " fill="#E5BD81" transform="translate(799,734)"/>
<path d="M0 0 C4.9723422 1.49170266 9.41845739 3.60457417 14 6 C14 6.66 14 7.32 14 8 C10.45265111 7.33694413 7.81990835 5.86707876 4.75 4 C3.85796875 3.46375 2.9659375 2.9275 2.046875 2.375 C1.37140625 1.92125 0.6959375 1.4675 0 1 C0 0.67 0 0.34 0 0 Z " fill="#ECC786" transform="translate(285,719)"/>
<path d="M0 0 C0.66 0.33 1.32 0.66 2 1 C-0.31 3.31 -2.62 5.62 -5 8 C-8.76687864 6.11656068 -9.79421646 5.30867531 -12 2 C-10 3 -8 4 -6 5 C-4.02 3.35 -2.04 1.7 0 0 Z " fill="#0B0C18" transform="translate(444,371)"/>
<path d="M0 0 C1.58468677 0.45363171 3.16769924 0.91311452 4.75 1.375 C5.63171875 1.63023437 6.5134375 1.88546875 7.421875 2.1484375 C9.76080572 2.9209934 11.83442562 3.83625676 14 5 C14 5.33 14 5.66 14 6 C8.03790777 5.58882123 4.68411993 4.74729595 0 1 C0 0.67 0 0.34 0 0 Z " fill="#E4BF82" transform="translate(478,257)"/>
<path d="M0 0 C0.66 0 1.32 0 2 0 C2.84114171 1.43294498 3.67265687 2.87154405 4.5 4.3125 C5.19609375 5.51326172 5.19609375 5.51326172 5.90625 6.73828125 C7 9 7 9 7 12 C4.08073481 9.36324434 2.90888873 7.76539616 2 4 C1.01 3.67 0.02 3.34 -1 3 C-0.67 2.01 -0.34 1.02 0 0 Z " fill="#1D1D22" transform="translate(557,585)"/>
<path d="M0 0 C0 3 0 3 -1.3125 4.38671875 C-2.875 5.59114583 -4.4375 6.79557292 -6 8 C-6.66 7.67 -7.32 7.34 -8 7 C-8 6.34 -8 5.68 -8 5 C-5.40759181 3.1402289 -2.85589153 1.42794577 0 0 Z " fill="#1E1E25" transform="translate(636,331)"/>
<path d="M0 0 C5.40489519 1.52012677 8.98492628 5.27385218 13 9 C12.34 9.66 11.68 10.32 11 11 C10.29875 10.278125 9.5975 9.55625 8.875 8.8125 C6.9024876 6.8286838 4.85610734 5.01682261 2.6875 3.25 C1.800625 2.5075 0.91375 1.765 0 1 C0 0.67 0 0.34 0 0 Z " fill="#DEB47B" transform="translate(610,534)"/>
<path d="M0 0 C0.33 0 0.66 0 1 0 C1.19436491 2.45796853 1.3807742 4.91609294 1.5625 7.375 C1.61857422 8.07367188 1.67464844 8.77234375 1.73242188 9.4921875 C2.11328125 14.7734375 2.11328125 14.7734375 1 17 C0.34 17 -0.32 17 -1 17 C-0.67 11.39 -0.34 5.78 0 0 Z " fill="#343131" transform="translate(583,193)"/>
<path d="M0 0 C5.29860806 1.2976183 9.34525646 3.15015702 14 6 C12.328125 6.6796875 12.328125 6.6796875 10 7 C7.421875 5.8203125 7.421875 5.8203125 4.75 4.125 C3.85796875 3.57070313 2.9659375 3.01640625 2.046875 2.4453125 C1.37140625 1.96835937 0.6959375 1.49140625 0 1 C0 0.67 0 0.34 0 0 Z " fill="#E5C383" transform="translate(428,848)"/>
<path d="M0 0 C5.19822672 1.36144033 8.09543873 3.46730171 12 7 C11.34 7.66 10.68 8.32 10 9 C8.33043913 7.69118353 6.66441696 6.37785174 5 5.0625 C4.071875 4.33160156 3.14375 3.60070312 2.1875 2.84765625 C1.465625 2.23792969 0.74375 1.62820312 0 1 C0 0.67 0 0.34 0 0 Z " fill="#19181F" transform="translate(547,135)"/>
<path d="M0 0 C-1.24252679 0.84443568 -2.4943886 1.6751458 -3.75 2.5 C-4.79414062 3.19609375 -4.79414062 3.19609375 -5.859375 3.90625 C-8 5 -8 5 -12 5 C-12 4.34 -12 3.68 -12 3 C-10.5682384 2.30062798 -9.12932968 1.61587282 -7.6875 0.9375 C-6.48673828 0.36322266 -6.48673828 0.36322266 -5.26171875 -0.22265625 C-3 -1 -3 -1 0 0 Z " fill="#13131D" transform="translate(593,710)"/>
<path d="M0 0 C4.30764815 1.56641751 8.06171464 3.68336156 12 6 C9.46100862 6.9435441 8.39090725 7.16906025 5.859375 6.07421875 C5.16328125 5.61660156 4.4671875 5.15898437 3.75 4.6875 C3.04359375 4.23761719 2.3371875 3.78773438 1.609375 3.32421875 C1.07828125 2.88722656 0.5471875 2.45023437 0 2 C0 1.34 0 0.68 0 0 Z " fill="#161621" transform="translate(763,450)"/>
<path d="M0 0 C-1.13819851 3.41459553 -2.24005518 4.3324158 -4.9375 6.625 C-5.64777344 7.23601562 -6.35804688 7.84703125 -7.08984375 8.4765625 C-9 10 -9 10 -11 11 C-9.60249952 7.84164893 -7.94801766 5.67727175 -5.5 3.25 C-4.8915625 2.63640625 -4.283125 2.0228125 -3.65625 1.390625 C-2 0 -2 0 0 0 Z " fill="#F2D08C" transform="translate(469,352)"/>
<path d="M0 0 C5.29158974 1.40071493 7.77478044 4.85487245 11 9 C5.70841026 7.59928507 3.22521956 4.14512755 0 0 Z " fill="#E3C384" transform="translate(350,302)"/>
<path d="M0 0 C0.57234375 0.21527344 1.1446875 0.43054688 1.734375 0.65234375 C0.30425527 1.51881042 -1.13503119 2.37016204 -2.578125 3.21484375 C-3.77888672 3.92833984 -3.77888672 3.92833984 -5.00390625 4.65625 C-7.265625 5.65234375 -7.265625 5.65234375 -10.265625 4.65234375 C-9.02618224 3.78292881 -7.77355441 2.93228918 -6.515625 2.08984375 C-5.81953125 1.61417969 -5.1234375 1.13851562 -4.40625 0.6484375 C-2.265625 -0.34765625 -2.265625 -0.34765625 0 0 Z " fill="#15141E" transform="translate(672.265625,809.34765625)"/>
<path d="M0 0 C0.66 0 1.32 0 2 0 C3.37073786 1.63604196 4.70055256 3.30678061 6 5 C6.98230498 6.0173873 7.97469597 7.02596117 9 8 C6 8 6 8 4.39453125 6.7578125 C3.87246094 6.21898437 3.35039063 5.68015625 2.8125 5.125 C2.28269531 4.59132813 1.75289062 4.05765625 1.20703125 3.5078125 C0 2 0 2 0 0 Z " fill="#14151D" transform="translate(532,616)"/>
<path d="M0 0 C3.81684226 1.55500981 6.19195732 4.03595495 9 7 C6 7 6 7 4 5.125 C3.34 4.42375 2.68 3.7225 2 3 C1.01 2.34 0.02 1.68 -1 1 C-0.67 0.67 -0.34 0.34 0 0 Z " fill="#E9C183" transform="translate(611,568)"/>
<path d="M0 0 C3.94139078 1.66751148 6.7892812 4.22710649 10 7 C9.34 7.66 8.68 8.32 8 9 C6.66368764 7.6905332 5.33102075 6.37734515 4 5.0625 C3.2575 4.33160156 2.515 3.60070312 1.75 2.84765625 C0 1 0 1 0 0 Z " fill="#0F101B" transform="translate(365,313)"/>
<path d="M0 0 C0.33 0.99 0.66 1.98 1 3 C0.00390625 4.82421875 0.00390625 4.82421875 -1.4375 6.6875 C-1.91058594 7.31011719 -2.38367188 7.93273437 -2.87109375 8.57421875 C-3.24363281 9.04472656 -3.61617187 9.51523438 -4 10 C-4.33 9.01 -4.66 8.02 -5 7 C-4.00390625 5.17578125 -4.00390625 5.17578125 -2.5625 3.3125 C-2.08941406 2.68988281 -1.61632812 2.06726563 -1.12890625 1.42578125 C-0.75636719 0.95527344 -0.38382813 0.48476562 0 0 Z " fill="#11121C" transform="translate(575,230)"/>
<path d="M0 0 C3.82097239 0.53069061 6.06171403 1.49701566 9 4 C8.01 4.33 7.02 4.66 6 5 C2.8125 3.125 2.8125 3.125 0 1 C0 0.67 0 0.34 0 0 Z " fill="#1D1D24" transform="translate(429,708)"/>
<path d="M0 0 C4.41889613 1.35021826 6.34345343 3.26115668 9 7 C4.58110387 5.64978174 2.65654657 3.73884332 0 0 Z " fill="#E3C484" transform="translate(409,355)"/>
<path d="M0 0 C3.08089673 2.77280706 4.68775452 5.06326356 6 9 C5.34 9 4.68 9 4 9 C0 3.70588235 0 3.70588235 0 0 Z " fill="#12141C" transform="translate(623,542)"/>
<path d="M0 0 C0.33 0.99 0.66 1.98 1 3 C-1.31 4.98 -3.62 6.96 -6 9 C-4.25618453 5.51236907 -2.47193291 2.96631949 0 0 Z " fill="#14151C" transform="translate(460,147)"/>
</svg>
